<svg width="680" height="370" viewBox="0 0 680 370" fill="none" xmlns="http://www.w3.org/2000/svg">
<g clip-path="url(#clip0_402_7665)">
<rect width="680" height="370" rx="8" fill="url(#paint0_linear_402_7665)"/>
<g opacity="0.5">
<g opacity="0.3">
<path d="M460.269 134.532C454.672 165.606 486.533 211.61 514.748 220.909C545.909 231.174 591.223 169.941 591.137 158.482C591.051 147.022 526.998 186.394 511.77 160.919C494.872 132.639 529.72 91.0226 518.588 83.6159C507.636 76.3268 466.739 98.6158 460.269 134.532Z" stroke="white" stroke-opacity="0.4" stroke-width="2.08907" stroke-miterlimit="10"/>
<path d="M451.817 138.641C441.645 172.034 482.747 224.696 515.429 233.626C552.452 243.732 595.636 172.136 599.288 159.195C602.443 148.045 533.849 180.072 513.163 152.016C490.682 121.54 517.561 80.189 508.667 77.5032C499.126 74.6318 463.783 99.4821 451.817 138.641Z" stroke="white" stroke-opacity="0.4" stroke-width="2.08907" stroke-miterlimit="10"/>
<path d="M443.373 142.757C428.626 178.401 478.972 237.757 516.104 246.338C559.038 256.281 599.54 174.764 607.447 159.914C613.171 149.102 540.772 173.733 514.537 143.109C486.559 110.443 505.744 68.204 498.792 71.4295C491.047 71.6927 460.941 100.266 443.373 142.757Z" stroke="white" stroke-opacity="0.4" stroke-width="2.08907" stroke-miterlimit="10"/>
<path d="M434.945 146.855C415.704 184.787 475.229 250.781 516.825 259.024C565.625 268.724 608.964 180.462 615.644 160.603C619.826 148.161 547.762 167.342 515.976 134.192C482.528 99.3029 493.806 56.778 488.95 65.3191C482.792 69.3782 458.176 101.095 434.945 146.855Z" stroke="white" stroke-opacity="0.4" stroke-width="2.08907" stroke-miterlimit="10"/>
<path d="M426.47 150.976C402.767 191.199 471.438 263.805 517.467 271.772C572.164 281.244 612.516 184.198 623.755 161.348C630.056 148.52 554.696 160.999 517.328 125.321C478.405 88.2148 484.017 46.0795 479.015 59.2602C475.805 67.6988 455.368 101.928 426.47 150.976Z" stroke="white" stroke-opacity="0.4" stroke-width="2.08907" stroke-miterlimit="10"/>
<path d="M418.025 155.078C389.886 197.625 467.683 276.814 518.142 284.482C578.748 293.701 609.203 181.941 631.945 162.081C643.718 151.779 561.718 154.618 518.741 116.432C474.427 77.0359 471.888 34.199 469.153 53.1957C467.42 64.9911 452.629 102.774 418.025 155.078Z" stroke="white" stroke-opacity="0.4" stroke-width="2.08907" stroke-miterlimit="10"/>
<path d="M409.581 159.192C377.013 204.058 463.9 289.79 518.819 297.205C585.331 306.147 612.136 183.92 640.066 162.779C653.733 152.437 568.69 148.207 520.097 107.52C470.333 65.8502 459.611 22.5511 459.228 47.0894C458.991 62.4825 449.904 103.632 409.581 159.192Z" stroke="white" stroke-opacity="0.4" stroke-width="2.08907" stroke-miterlimit="10"/>
<path d="M401.129 163.303C364.15 210.504 460.172 302.781 519.499 309.924C591.901 318.608 615.029 185.747 648.223 163.5C663.785 153.064 575.682 141.784 521.488 98.6186C466.317 54.6778 447.391 11.0456 449.338 41.0062C450.567 60.0602 447.185 104.522 401.129 163.303Z" stroke="white" stroke-opacity="0.4" stroke-width="2.08907" stroke-miterlimit="10"/>
<path d="M392.677 167.412C351.295 216.953 456.397 315.786 520.18 322.64C598.482 331.053 617.933 187.48 656.387 164.224C673.866 153.656 582.701 135.369 522.882 89.7267C462.296 43.4973 435.221 -0.400016 439.45 34.9205C442.162 57.6945 444.49 105.395 392.677 167.412Z" stroke="white" stroke-opacity="0.4" stroke-width="2.08907" stroke-miterlimit="10"/>
<path d="M384.234 171.527C338.446 223.463 452.634 328.768 520.856 335.352C605.041 343.502 620.811 189.101 664.533 164.932C683.944 154.2 589.701 128.938 524.263 80.8249C458.268 32.3005 423.076 -11.8466 429.544 28.8314C433.773 55.353 441.798 106.294 384.234 171.527Z" stroke="white" stroke-opacity="0.4" stroke-width="2.08907" stroke-miterlimit="10"/>
<path d="M375.782 175.636C325.594 229.882 448.858 341.761 521.537 348.068C611.638 355.916 623.735 190.65 672.69 165.651C694.043 154.73 596.717 122.498 525.654 71.9213C454.243 21.0962 410.941 -23.2404 419.655 22.7459C425.389 53.0281 439.106 107.203 375.782 175.636Z" stroke="white" stroke-opacity="0.4" stroke-width="2.08907" stroke-miterlimit="10"/>
<path d="M367.33 179.746C312.746 236.349 445.115 354.716 522.218 360.785C618.218 368.338 626.618 192.21 680.828 166.354C704.142 155.248 603.734 116.071 527.022 63.0082C450.206 9.88143 398.81 -34.6523 409.747 16.6445C417.018 50.7027 436.414 108.113 367.33 179.746Z" stroke="white" stroke-opacity="0.4" stroke-width="2.08907" stroke-miterlimit="10"/>
<path d="M358.887 183.86C299.901 242.827 441.383 367.711 522.894 373.496C624.799 380.759 629.539 193.71 689.006 167.076C714.284 155.755 610.744 109.614 528.428 54.1152C446.112 -1.38344 386.719 -46.0321 399.853 10.5533C408.649 48.3885 433.737 109.034 358.887 183.86Z" stroke="white" stroke-opacity="0.4" stroke-width="2.08907" stroke-miterlimit="10"/>
<path d="M350.435 187.969C287.054 249.306 437.591 380.658 523.57 386.219C631.404 393.203 632.501 195.202 697.158 167.802C724.417 156.258 617.754 103.169 529.815 45.2184C442.179 -12.5226 374.633 -57.4178 389.972 4.48563C400.285 46.0804 431.052 109.949 350.435 187.969Z" stroke="white" stroke-opacity="0.4" stroke-width="2.08907" stroke-miterlimit="10"/>
<path d="M341.983 192.08C274.207 255.787 433.841 393.463 524.266 398.917C637.985 405.372 635.43 196.601 705.325 168.497C734.572 156.736 624.785 96.6999 531.217 36.3035C438.176 -23.7512 362.556 -68.8271 380.092 -1.62317C391.92 43.7738 428.368 110.89 341.983 192.08Z" stroke="white" stroke-opacity="0.4" stroke-width="2.08907" stroke-miterlimit="10"/>
<path d="M333.539 196.194C261.368 262.271 430.077 406.443 524.919 411.642C644.558 417.842 638.314 198.026 713.454 169.224C744.694 157.227 631.772 90.2566 532.562 27.4036C434.115 -34.9768 350.435 -80.2103 370.156 -7.71683C383.558 41.465 425.685 111.817 333.539 196.194Z" stroke="white" stroke-opacity="0.4" stroke-width="2.08907" stroke-miterlimit="10"/>
<path d="M325.088 200.303C248.5 268.788 426.314 419.436 525.607 424.364C651.087 430.244 641.304 199.485 721.618 169.948C754.886 157.7 638.912 83.6426 533.968 18.5231C430.229 -46.3446 338.375 -91.5743 360.293 -13.7803C375.2 39.1622 423.002 112.756 325.088 200.303Z" stroke="white" stroke-opacity="0.4" stroke-width="2.08907" stroke-miterlimit="10"/>
<path d="M316.637 204.412C235.805 275.393 422.55 432.428 526.288 437.081C657.702 442.717 644.265 200.897 729.782 170.661C765.02 158.202 645.901 77.2239 535.361 9.61947C426.189 -57.5292 326.302 -102.949 350.393 -19.8647C366.844 36.8593 420.48 113.875 316.637 204.412Z" stroke="white" stroke-opacity="0.4" stroke-width="2.08907" stroke-miterlimit="10"/>
<path d="M308.191 208.528C222.931 281.851 418.79 445.404 526.969 449.799C664.271 455.166 647.225 202.3 737.939 171.381C775.181 158.686 652.88 70.7894 536.747 0.724206C422.148 -68.712 314.227 -114.335 340.504 -25.9483C358.502 34.6052 417.763 114.776 308.191 208.528Z" stroke="white" stroke-opacity="0.4" stroke-width="2.08907" stroke-miterlimit="10"/>
<path d="M299.74 212.638C210.059 288.309 415.022 458.403 527.644 462.51C670.827 467.59 650.203 203.693 746.091 172.095C785.35 159.161 659.922 64.3482 538.154 -8.15604C418.1 -79.847 302.015 -125.648 330.629 -32.0224C350.018 32.2958 415.04 115.671 299.74 212.638Z" stroke="white" stroke-opacity="0.4" stroke-width="2.08907" stroke-miterlimit="10"/>
<path d="M291.29 216.746C197.168 294.748 411.249 471.42 528.326 475.226C677.423 480.046 653.182 205.086 754.223 172.791C795.504 159.613 666.862 57.9332 539.501 -17.0986C414.062 -91.0868 290.011 -137.066 320.716 -38.1303C341.727 29.9805 412.361 116.579 291.29 216.746Z" stroke="white" stroke-opacity="0.4" stroke-width="2.08907" stroke-miterlimit="10"/>
<path d="M310.821 -44.2086C333.428 27.661 409.595 117.471 282.844 220.861C184.309 301.229 407.489 484.383 529.001 487.95C684.004 492.492 656.159 206.479 762.4 173.527C848.321 146.887 244.698 -254.388 310.821 -44.2086Z" stroke="white" stroke-opacity="0.4" stroke-width="2.08907" stroke-miterlimit="10"/>
</g>
</g>
</g>
<defs>
<linearGradient id="paint0_linear_402_7665" x1="583" y1="145.5" x2="125.5" y2="129" gradientUnits="userSpaceOnUse">
<stop stop-color="#006AFF"/>
<stop offset="1" stop-color="#081E4D"/>
</linearGradient>
<clipPath id="clip0_402_7665">
<rect width="680" height="370" rx="8" fill="white"/>
</clipPath>
</defs>
</svg>
